<?xml version="1.0" encoding="utf-8"?>
<svg version="1.1" id="Layer_1" xmlns="http://www.w3.org/2000/svg" xmlns:xlink="http://www.w3.org/1999/xlink" x="0px" y="0px"
	 viewBox="0 0 350 350" style="enable-background:new 0 0 350 350;" xml:space="preserve">
<style type="text/css">
	.st0{fill:#041C3F;}
	.st1{fill:#9788E2;}
	.st2{fill:#8478D6;}
	.st3{fill:#88E5D9;}
	.st4{fill:#69CCBE;}
	.st5{fill:#FF54A4;}
	.st6{fill:#EF4198;}
</style>
<g>
	<path class="st0" d="M309.4,178.4v-4c0-31.6-25.7-57.2-57.2-57.2h-67.9V92.7c15.4-4.1,26.8-18.1,26.8-34.8c0-19.9-16.2-36-36-36
		s-36,16.2-36,36c0,16.7,11.4,30.7,26.8,34.8v24.5H97.9c-31.6,0-57.2,25.7-57.2,57.2v4c-22.4,4.3-39.3,24-39.3,47.6
		c0,23.6,17,43.3,39.4,47.6c1.5,30.2,26.6,54.4,57.2,54.4h154.2c30.6,0,55.7-24.1,57.2-54.4c22.4-4.3,39.4-24,39.4-47.6
		C348.6,202.5,331.7,182.8,309.4,178.4z M40.7,254.7c-12.1-3.9-20.8-15.2-20.8-28.6c0-13.4,8.8-24.7,20.8-28.6V254.7z M290.9,270.8
		c0,21.4-17.4,38.8-38.8,38.8H97.9c-21.4,0-38.8-17.4-38.8-38.8v-96.4c0-21.4,17.4-38.8,38.8-38.8h154.2c21.4,0,38.8,17.4,38.8,38.8
		V270.8z M309.4,254.7v-57.2c12.1,3.9,20.8,15.2,20.8,28.6C330.2,239.4,321.4,250.8,309.4,254.7z"/>
	<path class="st1" d="M40.7,254.7c-12.1-3.9-20.8-15.2-20.8-28.6c0-13.4,8.8-24.7,20.8-28.6V254.7z"/>
	<path class="st1" d="M157.4,57.9c0-9.7,7.9-17.6,17.6-17.6c9.7,0,17.6,7.9,17.6,17.6s-7.9,17.6-17.6,17.6
		C165.3,75.5,157.4,67.6,157.4,57.9z"/>
	<path class="st2" d="M175,40.4c-7.3,0-13.6,4.5-16.2,10.9c2.1-0.9,4.3-1.3,6.7-1.3c9.7,0,17.6,7.9,17.6,17.6c0,2.4-0.5,4.6-1.3,6.7
		c6.4-2.6,10.9-8.9,10.9-16.2C192.6,48.3,184.7,40.4,175,40.4z"/>
	<path class="st3" d="M290.9,270.8c0,21.4-17.4,38.8-38.8,38.8H97.9c-21.4,0-38.8-17.4-38.8-38.8v-96.4c0-21.4,17.4-38.8,38.8-38.8
		h154.2c21.4,0,38.8,17.4,38.8,38.8V270.8z"/>
	<path class="st4" d="M252.1,135.6h-34.4c21.4,0,38.8,17.4,38.8,38.8v96.4c0,21.4-17.4,38.8-38.8,38.8h34.4
		c21.4,0,38.8-17.4,38.8-38.8v-96.4C290.9,153,273.5,135.6,252.1,135.6z"/>
	<path class="st1" d="M309.4,254.7v-57.2c12.1,3.9,20.8,15.2,20.8,28.6C330.2,239.4,321.4,250.8,309.4,254.7z"/>
	<path class="st2" d="M30.2,226.1c0-9.1,4-17.2,10.4-22.7v-5.9c-12.1,3.9-20.8,15.2-20.8,28.6c0,13.4,8.8,24.7,20.8,28.6v-5.9
		C34.3,243.3,30.2,235.1,30.2,226.1z"/>
	<path class="st2" d="M309.4,197.4v5.9c6.4,5.5,10.4,13.7,10.4,22.7c0,9.1-4,17.2-10.4,22.7v5.9c12.1-3.9,20.8-15.2,20.8-28.6
		C330.2,212.7,321.4,201.4,309.4,197.4z"/>
	<path class="st5" d="M242.3,211.3c-4.8,0-8.8-3.9-8.8-8.8c0-4.8,3.9-8.8,8.8-8.8c4.8,0,8.8,3.9,8.8,8.8
		C251,207.3,247.1,211.3,242.3,211.3z"/>
	<path class="st5" d="M107.7,211.3c-4.8,0-8.8-3.9-8.8-8.8c0-4.8,3.9-8.8,8.8-8.8c4.8,0,8.8,3.9,8.8,8.8
		C116.5,207.3,112.6,211.3,107.7,211.3z"/>
	<path class="st6" d="M242.3,193.7c-3.9,0-7.2,2.5-8.3,6.1c0.9-0.3,1.8-0.4,2.7-0.4c4.8,0,8.8,3.9,8.8,8.8c0,0.9-0.2,1.9-0.4,2.7
		c3.5-1.1,6.1-4.4,6.1-8.3C251,197.7,247.1,193.7,242.3,193.7z"/>
	<path class="st6" d="M107.7,193.7c-3.9,0-7.2,2.5-8.3,6.1c0.9-0.3,1.8-0.4,2.7-0.4c4.8,0,8.8,3.9,8.8,8.8c0,0.9-0.2,1.9-0.4,2.7
		c3.5-1.1,6.1-4.4,6.1-8.3C116.5,197.7,112.6,193.7,107.7,193.7z"/>
	<path class="st0" d="M242.3,175.3c-15,0-27.2,12.2-27.2,27.2c0,15,12.2,27.2,27.2,27.2c15,0,27.2-12.2,27.2-27.2
		C269.5,187.5,257.3,175.3,242.3,175.3z M242.3,211.3c-4.8,0-8.8-3.9-8.8-8.8c0-4.8,3.9-8.8,8.8-8.8c4.8,0,8.8,3.9,8.8,8.8
		C251,207.3,247.1,211.3,242.3,211.3z"/>
	<path class="st0" d="M107.7,175.3c-15,0-27.2,12.2-27.2,27.2c0,15,12.2,27.2,27.2,27.2s27.2-12.2,27.2-27.2
		C134.9,187.5,122.7,175.3,107.7,175.3z M107.7,211.3c-4.8,0-8.8-3.9-8.8-8.8c0-4.8,3.9-8.8,8.8-8.8c4.8,0,8.8,3.9,8.8,8.8
		C116.5,207.3,112.6,211.3,107.7,211.3z"/>
	<path class="st4" d="M200.1,265.1h-50.3c-5.1,0-9.2,4.1-9.2,9.2c0,5.1,4.1,9.2,9.2,9.2h50.3c5.1,0,9.2-4.1,9.2-9.2
		C209.4,269.2,205.2,265.1,200.1,265.1z"/>
	<path class="st0" d="M200.1,258.4h-50.3c-5.1,0-9.2,4.1-9.2,9.2c0,5.1,4.1,9.2,9.2,9.2h50.3c5.1,0,9.2-4.1,9.2-9.2
		C209.4,262.5,205.2,258.4,200.1,258.4z"/>
</g>
</svg>
